<svg width="492" height="244" viewBox="0 0 492 244" fill="none" xmlns="http://www.w3.org/2000/svg">
<g clip-path="url(#clip0_2415_1176)">
<path d="M153.28 174.2V113.91C157.46 114.37 164.81 114.56 177.71 114.58V144.39C177.71 145.92 178.95 147.16 180.48 147.16H243.43C264.5 147.16 283.82 136.31 293.85 118.83C298.52 110.69 301.21 101.37 301.83 91.13C302.85 74.25 297.03 60 284.51 48.78C273.49 38.9 258.79 33.46 243.13 33.46H52.01L66.49 2.51001H241.79C261.33 2.51001 279.77 7.83001 295.11 17.88C320.99 34.84 333.66 60.72 332.78 94.79C331.78 133.4 310.17 153.18 292.22 162.97C278.78 170.3 263.02 174.18 246.66 174.18H153.29L153.28 174.2Z" fill="url(#paint0_linear_2415_1176)"/>
<path d="M363.81 61.3C363.89 60.69 363.99 60.11 364.09 59.51L349.29 70.59C339.58 77.86 339.4 92.36 348.92 99.87L445.36 175.93H491.72L375.22 86.78C375.22 86.78 361.67 76.83 363.8 61.31L363.81 61.3Z" fill="url(#paint1_linear_2415_1176)"/>
<path style="mix-blend-mode:darken" d="M363.81 61.3C363.89 60.69 363.99 60.11 364.09 59.51L349.29 70.59C339.58 77.86 339.4 92.36 348.92 99.87L445.36 175.93H491.72L375.22 86.78C375.22 86.78 361.67 76.83 363.8 61.31L363.81 61.3Z" fill="url(#paint2_linear_2415_1176)"/>
<path d="M375.23 86.78L488.75 0H443.58L364.09 59.52C364 60.11 363.9 60.7 363.81 61.31C361.68 76.84 375.23 86.78 375.23 86.78Z" fill="url(#paint3_linear_2415_1176)"/>
<path style="mix-blend-mode:darken" d="M375.23 86.78L488.75 0H443.58L364.09 59.52C364 60.11 363.9 60.7 363.81 61.31C361.68 76.84 375.23 86.78 375.23 86.78Z" fill="url(#paint4_linear_2415_1176)"/>
<path style="mix-blend-mode:darken" d="M301.83 91.13C301.21 101.37 298.53 110.69 293.85 118.83C283.82 136.3 264.5 147.16 243.43 147.16H180.48C178.95 147.16 177.71 145.92 177.71 144.39V114.58C164.81 114.56 157.46 114.36 153.28 113.91V174.2H246.65C263.02 174.2 278.77 170.32 292.21 162.99C293.01 162.56 293.81 162.09 294.62 161.62C308.53 130.31 301.82 91.14 301.82 91.14L301.83 91.13Z" fill="url(#paint5_linear_2415_1176)"/>
<path d="M301.83 91.13C301.21 101.37 298.53 110.69 293.85 118.83C283.82 136.3 264.5 147.16 243.43 147.16H180.48C178.95 147.16 177.71 145.92 177.71 144.39V114.58C164.81 114.56 157.46 114.36 153.28 113.91V174.2H246.65C263.02 174.2 278.77 170.32 292.21 162.99C293.01 162.56 293.81 162.09 294.62 161.62C308.53 130.31 301.82 91.14 301.82 91.14L301.83 91.13Z" fill="url(#paint6_linear_2415_1176)"/>
<path style="mix-blend-mode:darken" d="M332.78 94.8C333.66 60.72 320.98 34.85 295.11 17.89C279.77 7.82999 261.33 2.51999 241.79 2.51999H66.49L52.01 33.47H243.12C258.78 33.47 273.48 38.91 284.5 48.79C297.02 60.01 302.85 74.26 301.82 91.14C301.82 91.14 308.53 130.31 294.62 161.62C312.04 151.4 331.82 131.7 332.77 94.81L332.78 94.8Z" fill="url(#paint7_linear_2415_1176)"/>
<path d="M332.78 94.8C333.66 60.72 320.98 34.85 295.11 17.89C279.77 7.82999 261.33 2.51999 241.79 2.51999H66.49L52.01 33.47H243.12C258.78 33.47 273.48 38.91 284.5 48.79C297.02 60.01 302.85 74.26 301.82 91.14C301.82 91.14 308.53 130.31 294.62 161.62C312.04 151.4 331.82 131.7 332.77 94.81L332.78 94.8Z" fill="url(#paint8_linear_2415_1176)"/>
<path d="M76.55 49.08H48.32L72.36 106.04H10.7L0 131.01H83.12L105 174.17C105 174.17 99.62 134.4 95.96 114.76C92.31 95.12 76.54 49.08 76.54 49.08H76.55Z" fill="url(#paint9_linear_2415_1176)"/>
<path d="M76.55 49.08C76.55 49.08 92.31 95.12 95.97 114.76C99.62 134.4 105.01 174.17 105.01 174.17H140.16L76.56 49.08H76.55Z" fill="url(#paint10_linear_2415_1176)"/>
<path style="mix-blend-mode:darken" d="M76.55 49.08H48.32L72.36 106.04H10.7L0 131.01H83.12L105 174.17C105 174.17 99.62 134.4 95.96 114.76C92.31 95.12 76.54 49.08 76.54 49.08H76.55Z" fill="url(#paint11_linear_2415_1176)"/>
<path style="mix-blend-mode:darken" d="M76.55 49.08C76.55 49.08 92.31 95.12 95.97 114.76C99.62 134.4 105.01 174.17 105.01 174.17H140.16L76.56 49.08H76.55Z" fill="url(#paint12_linear_2415_1176)"/>
<path d="M76.55 49.08C76.55 49.08 92.31 95.12 95.97 114.76C99.62 134.4 105.01 174.17 105.01 174.17H140.16L76.56 49.08H76.55Z" fill="url(#paint13_linear_2415_1176)"/>
<path d="M191.77 35.33H183.96V144.03H191.77V35.33Z" fill="url(#paint14_linear_2415_1176)"/>
<path d="M206.41 54.7H198.6V144.03H206.41V54.7Z" fill="url(#paint15_linear_2415_1176)"/>
<path d="M221.04 81.51H213.23V144.02H221.04V81.51Z" fill="url(#paint16_linear_2415_1176)"/>
<path d="M235.07 103.02H227.26V144.02H235.07V103.02Z" fill="url(#paint17_linear_2415_1176)"/>
<path d="M181.31 38.35H173.5V109.21H181.31V38.35Z" fill="url(#paint18_linear_2415_1176)"/>
<path d="M167.28 55.96H159.47V109.2H167.28V55.96Z" fill="url(#paint19_linear_2415_1176)"/>
<path d="M154.31 80.24H146.5V109.21H154.31V80.24Z" fill="url(#paint20_linear_2415_1176)"/>
<path d="M375.23 86.78L488.75 0H443.58L364.09 59.52C364 60.11 363.9 60.7 363.81 61.31C361.68 76.84 375.23 86.78 375.23 86.78Z" fill="url(#paint21_linear_2415_1176)"/>
<path d="M19.74 243.02L18.06 237H7.42L5.69 243.02H0L9.03 212.54H17.05L26.08 243.02H19.74ZM12.81 218.14L8.8 232.32H16.78L12.81 218.14Z" fill="url(#paint22_linear_2415_1176)"/>
<path d="M122.875 219.855L117.485 220.81C117.26 220.12 116.902 219.464 116.412 218.841C115.934 218.218 115.285 217.707 114.463 217.31C113.641 216.912 112.613 216.713 111.38 216.713C109.697 216.713 108.291 217.091 107.164 217.847C106.038 218.589 105.474 219.55 105.474 220.73C105.474 221.751 105.852 222.573 106.608 223.196C107.363 223.819 108.583 224.33 110.267 224.727L115.119 225.841C117.93 226.491 120.024 227.491 121.403 228.844C122.782 230.196 123.471 231.953 123.471 234.114C123.471 235.943 122.941 237.574 121.88 239.006C120.833 240.424 119.368 241.538 117.485 242.347C115.616 243.155 113.449 243.56 110.983 243.56C107.562 243.56 104.771 242.83 102.61 241.372C100.449 239.901 99.1237 237.812 98.6332 235.108L104.38 234.233C104.738 235.731 105.474 236.865 106.588 237.634C107.701 238.389 109.153 238.767 110.943 238.767C112.892 238.767 114.449 238.363 115.616 237.554C116.783 236.732 117.366 235.731 117.366 234.551C117.366 233.597 117.008 232.795 116.292 232.145C115.59 231.495 114.509 231.005 113.051 230.673L107.88 229.54C105.03 228.89 102.922 227.856 101.556 226.438C100.204 225.019 99.5281 223.223 99.5281 221.048C99.5281 219.245 100.032 217.668 101.039 216.315C102.047 214.963 103.439 213.909 105.216 213.153C106.992 212.384 109.027 212 111.321 212C114.622 212 117.22 212.716 119.116 214.148C121.012 215.566 122.265 217.469 122.875 219.855Z" fill="url(#paint23_linear_2415_1176)"/>
<path d="M220.266 219.855L214.877 220.81C214.651 220.12 214.293 219.464 213.803 218.841C213.326 218.218 212.676 217.707 211.854 217.31C211.032 216.912 210.005 216.713 208.772 216.713C207.088 216.713 205.683 217.091 204.556 217.847C203.429 218.589 202.865 219.55 202.865 220.73C202.865 221.751 203.243 222.573 203.999 223.196C204.755 223.819 205.974 224.33 207.658 224.727L212.51 225.841C215.321 226.491 217.416 227.491 218.794 228.844C220.173 230.196 220.862 231.953 220.862 234.114C220.862 235.943 220.332 237.574 219.272 239.006C218.224 240.424 216.759 241.538 214.877 242.347C213.007 243.155 210.84 243.56 208.374 243.56C204.953 243.56 202.163 242.83 200.002 241.372C197.841 239.901 196.515 237.812 196.024 235.108L201.772 234.233C202.13 235.731 202.865 236.865 203.979 237.634C205.093 238.389 206.544 238.767 208.334 238.767C210.283 238.767 211.841 238.363 213.007 237.554C214.174 236.732 214.757 235.731 214.757 234.551C214.757 233.597 214.399 232.795 213.684 232.145C212.981 231.495 211.9 231.005 210.442 230.673L205.272 229.54C202.421 228.89 200.313 227.856 198.948 226.438C197.595 225.019 196.919 223.223 196.919 221.048C196.919 219.245 197.423 217.668 198.431 216.315C199.438 214.963 200.83 213.909 202.607 213.153C204.383 212.384 206.418 212 208.712 212C212.013 212 214.612 212.716 216.507 214.148C218.403 215.566 219.656 217.469 220.266 219.855Z" fill="url(#paint24_linear_2415_1176)"/>
<path d="M298.416 212.28V243.28H293.416V212.28H298.416Z" fill="url(#paint25_linear_2415_1176)"/>
<path d="M395.21 219.855L389.821 220.81C389.596 220.12 389.238 219.464 388.747 218.841C388.27 218.218 387.62 217.707 386.798 217.31C385.976 216.912 384.949 216.713 383.716 216.713C382.032 216.713 380.627 217.091 379.5 217.847C378.373 218.589 377.81 219.55 377.81 220.73C377.81 221.751 378.188 222.573 378.943 223.196C379.699 223.819 380.919 224.33 382.602 224.727L387.455 225.841C390.265 226.491 392.36 227.491 393.739 228.844C395.118 230.196 395.807 231.953 395.807 234.114C395.807 235.943 395.277 237.574 394.216 239.006C393.169 240.424 391.704 241.538 389.821 242.347C387.952 243.155 385.784 243.56 383.318 243.56C379.898 243.56 377.107 242.83 374.946 241.372C372.785 239.901 371.459 237.812 370.969 235.108L376.716 234.233C377.074 235.731 377.81 236.865 378.923 237.634C380.037 238.389 381.489 238.767 383.279 238.767C385.227 238.767 386.785 238.363 387.952 237.554C389.118 236.732 389.702 235.731 389.702 234.551C389.702 233.597 389.344 232.795 388.628 232.145C387.925 231.495 386.845 231.005 385.386 230.673L380.216 229.54C377.366 228.89 375.258 227.856 373.892 226.438C372.54 225.019 371.864 223.223 371.864 221.048C371.864 219.245 372.368 217.668 373.375 216.315C374.383 214.963 375.775 213.909 377.551 213.153C379.328 212.384 381.363 212 383.656 212C386.958 212 389.556 212.716 391.452 214.148C393.348 215.566 394.601 217.469 395.21 219.855Z" fill="url(#paint26_linear_2415_1176)"/>
<path d="M468.36 216.474V212.507H492V216.474H482.469V243.053H477.876V216.474H468.36Z" fill="url(#paint27_linear_2415_1176)"/>
</g>
<defs>
<linearGradient id="paint0_linear_2415_1176" x1="192.416" y1="48.4271" x2="192.416" y2="142.258" gradientUnits="userSpaceOnUse">
<stop stop-color="#D8B16F"/>
<stop offset="0.5" stop-color="#564A36"/>
<stop offset="1" stop-color="#D8B16F"/>
</linearGradient>
<linearGradient id="paint1_linear_2415_1176" x1="416.806" y1="90.6456" x2="416.806" y2="154.27" gradientUnits="userSpaceOnUse">
<stop stop-color="#D8B16F"/>
<stop offset="0.5" stop-color="#564A36"/>
<stop offset="1" stop-color="#D8B16F"/>
</linearGradient>
<linearGradient id="paint2_linear_2415_1176" x1="372.98" y1="138.85" x2="465.18" y2="103.39" gradientUnits="userSpaceOnUse">
<stop stop-color="#BCA275" stop-opacity="0.1"/>
<stop offset="0.38" stop-color="#BCA275" stop-opacity="0.1"/>
<stop offset="1" stop-color="#BCA275"/>
</linearGradient>
<linearGradient id="paint3_linear_2415_1176" x1="426.166" y1="23.2086" x2="426.166" y2="70.6349" gradientUnits="userSpaceOnUse">
<stop stop-color="#D8B16F"/>
<stop offset="0.5" stop-color="#564A36"/>
<stop offset="1" stop-color="#D8B16F"/>
</linearGradient>
<linearGradient id="paint4_linear_2415_1176" x1="401.55" y1="48.13" x2="537.08" y2="-33.55" gradientUnits="userSpaceOnUse">
<stop stop-color="#062740" stop-opacity="0"/>
<stop offset="0.38" stop-color="#062740" stop-opacity="0.16"/>
<stop offset="1" stop-color="#062740"/>
</linearGradient>
<linearGradient id="paint5_linear_2415_1176" x1="231.12" y1="132.78" x2="40.31" y2="126.57" gradientUnits="userSpaceOnUse">
<stop stop-color="#062740" stop-opacity="0"/>
<stop offset="0.38" stop-color="#062740" stop-opacity="0.16"/>
<stop offset="1" stop-color="#062740"/>
</linearGradient>
<linearGradient id="paint6_linear_2415_1176" x1="228.44" y1="132.68" x2="357.09" y2="-13.38" gradientUnits="userSpaceOnUse">
<stop stop-color="#BCA275" stop-opacity="0"/>
<stop offset="0.03" stop-color="#BCA275" stop-opacity="0.01"/>
<stop offset="0.19" stop-color="#BCA275" stop-opacity="0.0961"/>
<stop offset="0.34" stop-color="#BCA275" stop-opacity="0.2704"/>
<stop offset="0.49" stop-color="#BCA275" stop-opacity="0.4761"/>
<stop offset="0.63" stop-color="#BCA275" stop-opacity="0.6889"/>
<stop offset="0.76" stop-color="#BCA275" stop-opacity="0.8464"/>
<stop offset="0.89" stop-color="#BCA275" stop-opacity="0.9604"/>
<stop offset="1" stop-color="#BCA275"/>
</linearGradient>
<linearGradient id="paint7_linear_2415_1176" x1="199.1" y1="51.43" x2="153.11" y2="184.43" gradientUnits="userSpaceOnUse">
<stop stop-color="#062740" stop-opacity="0"/>
<stop offset="0.38" stop-color="#062740" stop-opacity="0.16"/>
<stop offset="1" stop-color="#062740"/>
</linearGradient>
<linearGradient id="paint8_linear_2415_1176" x1="173.97" y1="-2.71001" x2="132.95" y2="-128.88" gradientUnits="userSpaceOnUse">
<stop stop-color="#BCA275" stop-opacity="0"/>
<stop offset="0.03" stop-color="#BCA275" stop-opacity="0.01"/>
<stop offset="0.19" stop-color="#BCA275" stop-opacity="0.0961"/>
<stop offset="0.34" stop-color="#BCA275" stop-opacity="0.2704"/>
<stop offset="0.49" stop-color="#BCA275" stop-opacity="0.4761"/>
<stop offset="0.63" stop-color="#BCA275" stop-opacity="0.6889"/>
<stop offset="0.76" stop-color="#BCA275" stop-opacity="0.8464"/>
<stop offset="0.89" stop-color="#BCA275" stop-opacity="0.9604"/>
<stop offset="1" stop-color="#BCA275"/>
</linearGradient>
<linearGradient id="paint9_linear_2415_1176" x1="52.5" y1="82.5343" x2="52.5" y2="150.897" gradientUnits="userSpaceOnUse">
<stop stop-color="#D8B16F"/>
<stop offset="0.5" stop-color="#564A36"/>
<stop offset="1" stop-color="#D8B16F"/>
</linearGradient>
<linearGradient id="paint10_linear_2415_1176" x1="108.355" y1="82.5343" x2="108.355" y2="150.897" gradientUnits="userSpaceOnUse">
<stop stop-color="#D8B16F"/>
<stop offset="0.5" stop-color="#564A36"/>
<stop offset="1" stop-color="#D8B16F"/>
</linearGradient>
<linearGradient id="paint11_linear_2415_1176" x1="46.15" y1="115.57" x2="167.73" y2="99.87" gradientUnits="userSpaceOnUse">
<stop stop-color="#BCA275" stop-opacity="0"/>
<stop offset="0.38" stop-color="#BCA275" stop-opacity="0.16"/>
<stop offset="1" stop-color="#BCA275"/>
</linearGradient>
<linearGradient id="paint12_linear_2415_1176" x1="97.59" y1="113.95" x2="224.24" y2="157.01" gradientUnits="userSpaceOnUse">
<stop stop-color="#062740" stop-opacity="0"/>
<stop offset="0.38" stop-color="#062740" stop-opacity="0.16"/>
<stop offset="1" stop-color="#062740"/>
</linearGradient>
<linearGradient id="paint13_linear_2415_1176" x1="109.08" y1="136.5" x2="31.5701" y2="-79.81" gradientUnits="userSpaceOnUse">
<stop stop-color="#BCA275" stop-opacity="0"/>
<stop offset="0.03" stop-color="#BCA275" stop-opacity="0.01"/>
<stop offset="0.19" stop-color="#BCA275" stop-opacity="0.0961"/>
<stop offset="0.34" stop-color="#BCA275" stop-opacity="0.2704"/>
<stop offset="0.49" stop-color="#BCA275" stop-opacity="0.4761"/>
<stop offset="0.63" stop-color="#BCA275" stop-opacity="0.6889"/>
<stop offset="0.76" stop-color="#BCA275" stop-opacity="0.8464"/>
<stop offset="0.89" stop-color="#BCA275" stop-opacity="0.9604"/>
<stop offset="1" stop-color="#BCA275"/>
</linearGradient>
<linearGradient id="paint14_linear_2415_1176" x1="187.87" y1="35.33" x2="187.87" y2="144.03" gradientUnits="userSpaceOnUse">
<stop stop-color="#BCA275" stop-opacity="0.1"/>
<stop offset="1" stop-color="#BCA275"/>
</linearGradient>
<linearGradient id="paint15_linear_2415_1176" x1="203" y1="48" x2="202.5" y2="149.5" gradientUnits="userSpaceOnUse">
<stop stop-color="#BCA275" stop-opacity="0"/>
<stop offset="1" stop-color="#BCA275"/>
</linearGradient>
<linearGradient id="paint16_linear_2415_1176" x1="217" y1="150" x2="217" y2="82" gradientUnits="userSpaceOnUse">
<stop stop-color="#BCA275"/>
<stop offset="1" stop-color="#BCA275" stop-opacity="0"/>
</linearGradient>
<linearGradient id="paint17_linear_2415_1176" x1="231" y1="144" x2="231" y2="103" gradientUnits="userSpaceOnUse">
<stop stop-color="#BCA275"/>
<stop offset="1" stop-color="#BCA275" stop-opacity="0"/>
</linearGradient>
<linearGradient id="paint18_linear_2415_1176" x1="177.4" y1="38.35" x2="177.4" y2="109.21" gradientUnits="userSpaceOnUse">
<stop stop-color="#BCA275" stop-opacity="0.1"/>
<stop offset="1" stop-color="#BCA275"/>
</linearGradient>
<linearGradient id="paint19_linear_2415_1176" x1="163.37" y1="55.96" x2="163.37" y2="109.21" gradientUnits="userSpaceOnUse">
<stop stop-color="#BCA275" stop-opacity="0.1"/>
<stop offset="1" stop-color="#BCA275"/>
</linearGradient>
<linearGradient id="paint20_linear_2415_1176" x1="150.4" y1="83.43" x2="150.4" y2="108.44" gradientUnits="userSpaceOnUse">
<stop stop-color="#BCA275" stop-opacity="0.04"/>
<stop offset="1" stop-color="#BCA275"/>
</linearGradient>
<linearGradient id="paint21_linear_2415_1176" x1="386.18" y1="44.7" x2="260.55" y2="51.79" gradientUnits="userSpaceOnUse">
<stop stop-color="#BCA275" stop-opacity="0"/>
<stop offset="0.03" stop-color="#BCA275" stop-opacity="0.01"/>
<stop offset="0.19" stop-color="#BCA275" stop-opacity="0.0961"/>
<stop offset="0.34" stop-color="#BCA275" stop-opacity="0.2704"/>
<stop offset="0.49" stop-color="#BCA275" stop-opacity="0.4761"/>
<stop offset="0.63" stop-color="#BCA275" stop-opacity="0.6889"/>
<stop offset="0.76" stop-color="#BCA275" stop-opacity="0.8464"/>
<stop offset="0.89" stop-color="#BCA275" stop-opacity="0.9604"/>
<stop offset="1" stop-color="#BCA275"/>
</linearGradient>
<linearGradient id="paint22_linear_2415_1176" x1="0" y1="243.02" x2="27.6559" y2="242.559" gradientUnits="userSpaceOnUse">
<stop stop-color="#564A36"/>
<stop offset="0.5" stop-color="#D8B16F"/>
<stop offset="1" stop-color="#564A36"/>
</linearGradient>
<linearGradient id="paint23_linear_2415_1176" x1="98.6332" y1="243.56" x2="124.973" y2="243.156" gradientUnits="userSpaceOnUse">
<stop stop-color="#564A36"/>
<stop offset="0.5" stop-color="#D8B16F"/>
<stop offset="1" stop-color="#564A36"/>
</linearGradient>
<linearGradient id="paint24_linear_2415_1176" x1="196.024" y1="243.56" x2="222.364" y2="243.156" gradientUnits="userSpaceOnUse">
<stop stop-color="#564A36"/>
<stop offset="0.5" stop-color="#D8B16F"/>
<stop offset="1" stop-color="#564A36"/>
</linearGradient>
<linearGradient id="paint25_linear_2415_1176" x1="293.416" y1="243.28" x2="298.719" y2="243.263" gradientUnits="userSpaceOnUse">
<stop stop-color="#564A36"/>
<stop offset="0.5" stop-color="#D8B16F"/>
<stop offset="1" stop-color="#564A36"/>
</linearGradient>
<linearGradient id="paint26_linear_2415_1176" x1="370.969" y1="243.56" x2="397.309" y2="243.156" gradientUnits="userSpaceOnUse">
<stop stop-color="#564A36"/>
<stop offset="0.5" stop-color="#D8B16F"/>
<stop offset="1" stop-color="#564A36"/>
</linearGradient>
<linearGradient id="paint27_linear_2415_1176" x1="468.36" y1="243.053" x2="493.43" y2="242.675" gradientUnits="userSpaceOnUse">
<stop stop-color="#564A36"/>
<stop offset="0.5" stop-color="#D8B16F"/>
<stop offset="1" stop-color="#564A36"/>
</linearGradient>
<clipPath id="clip0_2415_1176">
<rect width="491.73" height="243.74" fill="white"/>
</clipPath>
</defs>
</svg>
